name C:\Users\u0101727\Documents\MyRepositories\upper-imu-dc\Results\main_tracking\Case_24\kinematics.mot
datacolumns 10
datarows 56
range 1.75000000 2.30000000
endheader 
time	clav_prot	clav_elev	scapula_abduction	scapula_elevation	scapula_upward_rot	scapula_winging	plane_elv	shoulder_elv	axial_rot	
          1.75000000	        -21.57451113	         16.21345580	         -5.70259855	          6.74799949	         32.31919800	         -1.60711336	         27.59263211	          4.30612908	          7.65682760	
          1.76000000	        -21.52414798	         16.19250880	         -5.65892641	          6.75135461	         32.24359279	         -1.58497164	         27.99376634	          4.35828742	          7.30287494	
          1.77000000	        -21.47051575	         16.18600183	         -5.61004549	          6.76364600	         32.17711351	         -1.56303957	         28.38814484	          4.39811364	          6.95565449	
          1.78000000	        -21.41369285	         16.19541758	         -5.55581569	          6.78566276	         32.12116327	         -1.54149619	         28.75375291	          4.42308269	          6.62325991	
          1.79000000	        -21.34673770	         16.21938231	         -5.48373324	          6.81718801	         32.07391562	         -1.51982604	         29.05198893	          4.43251055	          6.32099772	
          1.80000000	        -21.24124734	         16.25083346	         -5.34108968	          6.85613823	         32.02853457	         -1.49658991	         29.22979140	          4.42966974	          6.07110931	
          1.81000000	        -21.02284867	         16.27491463	         -4.98382178	          6.89771619	         31.97632507	         -1.47119087	         29.22600616	          4.41897874	          5.90098048	
          1.82000000	        -21.22822917	         16.32148649	         -5.45563768	          6.93223869	         31.91768244	         -1.44608973	         28.98041246	          4.39605761	          5.84176317	
          1.83000000	        -20.97593712	         16.30831657	         -5.02839581	          6.95284641	         31.84442464	         -1.42060673	         28.44604009	          4.36574012	          5.92361242	
          1.84000000	        -20.95426295	         16.29462666	         -5.04137944	          6.95946646	         31.77129428	         -1.39896862	         27.59480304	          4.30807594	          6.17411472	
          1.85000000	        -20.89874101	         16.25254686	         -4.97954855	          6.94900910	         31.68934321	         -1.37977563	         26.43019318	          4.23079543	          6.61346028	
          1.86000000	        -21.33923090	         16.22134646	         -5.88680402	          6.92113657	         31.58970197	         -1.35999420	         24.99300732	          4.14293699	          7.24611545	
          1.87000000	        -20.86102153	         16.08673389	         -4.99924471	          6.87697278	         31.46284728	         -1.33741656	         23.36717669	          4.05592528	          8.05028008	
          1.88000000	        -20.82556253	         15.94512728	         -4.98827042	          6.81039480	         31.29461028	         -1.30918563	         21.66858275	          3.99114825	          8.98276207	
          1.89000000	        -20.80406707	         15.76115444	         -5.00906331	          6.71961623	         31.09004229	         -1.27668310	         20.03297463	          3.95124395	          9.97332054	
          1.90000000	        -20.78968090	         15.54169564	         -5.04834506	          6.60905961	         30.85437335	         -1.23979855	         18.59471424	          3.93774899	         10.93262762	
          1.91000000	        -20.77637659	         15.29252857	         -5.09856859	          6.48350587	         30.58714309	         -1.19681272	         17.46434056	          3.95743045	         11.76800182	
          1.92000000	        -20.75995133	         15.01593743	         -5.15617184	          6.34574821	         30.28472754	         -1.14566175	         16.70972649	          4.01953115	         12.40216714	
          1.93000000	        -20.73733667	         14.71000434	         -5.21789388	          6.19561658	         29.94267050	         -1.08474822	         16.34399428	          4.13310261	         12.79190125	
          1.94000000	        -20.70767225	         14.36835174	         -5.28149043	          6.02940052	         29.55719117	         -1.01333699	         16.32318346	          4.30525723	         12.93956554	
          1.95000000	        -20.67316133	         13.98109172	         -5.34611553	          5.83997615	         29.12753204	         -0.93196813	         16.55544801	          4.53856394	         12.89193907	
          1.96000000	        -20.63924356	         13.53683340	         -5.41263796	          5.61787691	         28.65764916	         -0.84245557	         16.91784638	          4.82909617	         12.72911114	
          1.97000000	        -20.61262977	         13.02600370	         -5.48159045	          5.35368512	         28.15680778	         -0.74739347	         17.27758166	          5.16572543	         12.54689545	
          1.98000000	        -20.59428273	         12.44585439	         -5.54397877	          5.04236807	         27.63833414	         -0.64917200	         17.51309127	          5.53122445	         12.43822576	
          1.99000000	        -20.56462931	         11.80709477	         -5.55938584	          4.68958050	         27.11696483	         -0.54923087	         17.53113333	          5.90444367	         12.47719126	
          2.00000000	        -20.46919846	         11.13751171	         -5.43632761	          4.31668286	         26.60195731	         -0.44758919	         17.27990760	          6.26692117	         12.70919382	
          2.01000000	        -21.13065680	         10.54410290	         -6.75412477	          3.95898995	         26.08629557	         -0.30789859	         16.74016056	          6.62358656	         13.14865079	
          2.02000000	        -22.38450070	         10.08561815	         -9.25616484	          3.67893904	         25.51007386	         -0.15212256	         15.94519794	          7.01081373	         13.77928227	
          2.03000000	        -21.03158911	          9.51703401	         -6.99900643	          3.49146019	         24.84767598	          0.03159475	         14.93562362	          7.45806760	         14.57078281	
          2.04000000	        -20.56177764	          8.99285455	         -6.38267035	          3.28594086	         24.17969819	          0.20817050	         13.75866237	          7.91461324	         15.48178473	
          2.05000000	        -20.83542513	          8.46408065	         -7.10058533	          3.02931340	         23.54413423	          0.40767271	         12.46550966	          8.36668684	         16.45308747	
          2.06000000	        -20.55380797	          7.85236361	         -6.74358218	          2.73452214	         22.94055434	          0.57736373	         11.11339359	          8.79852466	         17.44009581	
          2.07000000	        -20.82733394	          7.27634387	         -7.37460883	          2.42290371	         22.39294051	          0.76270366	          9.75553585	          9.19643529	         18.38211990	
          2.08000000	        -20.66356280	          6.70558859	         -7.18425459	          2.12881171	         21.88958774	          0.92001130	          8.44085135	          9.55127841	         19.24003091	
          2.09000000	        -20.79828032	          6.23228692	         -7.55239167	          1.88252266	         21.42243165	          1.08499024	          7.19733379	          9.87216824	         19.97482522	
          2.10000000	        -20.89406437	          5.86047770	         -7.88639961	          1.71242473	         20.96381411	          1.24592934	          6.03645008	         10.17633907	         20.56911030	
          2.11000000	        -20.52019409	          5.54446166	         -7.39530209	          1.60979714	         20.50724243	          1.38019685	          4.94855645	         10.47258921	         21.01681772	
          2.12000000	        -20.19799955	          5.28801643	         -6.97364828	          1.53168815	         20.12032411	          1.48994159	          3.90997275	         10.71707065	         21.32805698	
          2.13000000	        -19.96835693	          5.07119392	         -6.67322800	          1.45572533	         19.82387019	          1.57442960	          2.89901735	         10.90280557	         21.51986120	
          2.14000000	        -19.80905234	          4.88750541	         -6.45736573	          1.38021057	         19.60977637	          1.63664529	          1.90354989	         11.04405539	         21.61690449	
          2.15000000	        -19.68637662	          4.73234088	         -6.27545492	          1.30781554	         19.46055650	          1.68018739	          0.92116777	         11.16072350	         21.64797480	
          2.16000000	        -19.57490617	          4.59703837	         -6.08975577	          1.23763042	         19.35919490	          1.70869964	         -0.04424147	         11.27066916	         21.64373894	
          2.17000000	        -19.46379098	          4.46797008	         -5.88357480	          1.16302783	         19.29359503	          1.72571615	         -0.98583146	         11.38597101	         21.63414903	
          2.18000000	        -19.35749073	          4.32752138	         -5.66208288	          1.07197612	         19.25812598	          1.73465928	         -1.89676361	         11.51148527	         21.64616255	
          2.19000000	        -19.27501067	          4.15546636	         -5.45131403	          0.94803123	         19.25403407	          1.73900811	         -2.77222463	         11.64435458	         21.70194569	
          2.20000000	        -19.24832030	          3.93069038	         -5.29641138	          0.77188779	         19.28887222	          1.74265851	         -3.61057672	         11.77431469	         21.81760653	
          2.21000000	        -19.31844658	          3.63419593	         -5.25727810	          0.52448760	         19.37398083	          1.75028231	         -4.41420420	         11.88544175	         22.00306013	
          2.22000000	        -19.52537617	          3.25487316	         -5.39665531	          0.19353865	         19.51767367	          1.76733291	         -5.19019889	         11.96117914	         22.26406105	
          2.23000000	        -19.88372500	          2.79943730	         -5.74931346	         -0.21420528	         19.71037100	          1.79940719	         -5.94965152	         11.99597079	         22.60697707	
          2.24000000	        -20.32585836	          2.30550362	         -6.24229331	         -0.65389826	         19.89850225	          1.85124936	         -6.70078817	         12.01690767	         23.04442722	
          2.25000000	        -20.55254170	          1.84381361	         -6.46418487	         -1.02097871	         19.93600172	          1.92944453	         -7.43275270	         12.13032665	         23.60386625	
          2.26000000	        -20.35757105	          1.46923747	         -6.20015809	         -1.21466455	         19.62326774	          2.06345307	         -8.12266053	         12.50141012	         24.30374942	
          2.27000000	        -19.57715587	          1.13447082	         -5.04289067	         -1.29778956	         19.10780589	          2.18733265	         -8.82983911	         13.00144711	         25.18808857	
          2.28000000	        -18.87057956	          0.80268509	         -4.01595124	         -1.38316330	         18.59242372	          2.30133710	         -9.61166357	         13.47227156	         26.28019838	
          2.29000000	        -18.34422896	          0.44616771	         -3.25364402	         -1.51502862	         18.15135218	          2.41185603	        -10.46922892	         13.86646763	         27.58870675	
          2.30000000	        -18.01676418	          0.06279915	         -2.77540008	         -1.70170341	         17.80873757	          2.52633382	        -11.38170596	         14.17704642	         29.09888939	
